<svg xmlns="http://www.w3.org/2000/svg" viewBox="0 0 400 86.39"><defs><style>.cls-1{fill:#fff;}.cls-2{fill:#0071bc;}</style></defs><g id="Layer_2" data-name="Layer 2"><g id="Layer_1-2" data-name="Layer 1"><path class="cls-1" d="M145.3,6.32h7.13V44.81h-7.88V20.16L133.93,35.84H128.3L117.67,20.16V44.81H109.8V6.32h7.12l14.19,21Z"/><path class="cls-1" d="M187.06,13.27H169.19v8.1h16.15v7.12H169.19v9.19h17.87v7.13H161.27V6.32h25.79Z"/><path class="cls-1" d="M230.2,6.32h7.13V44.81h-7.88V20.16L218.83,35.84H213.2L202.57,20.16V44.81H194.7V6.32h7.12l14.19,21Z"/><path class="cls-1" d="M272,13.27H254.09v8.1h16.15v7.12H254.09v9.19H272v7.13H246.17V6.32H272Z"/><path class="cls-1" d="M308.44,6.32h8V44.81H309.3l-21.72-26v26h-8V6.32h7.12l21.72,26Z"/><path class="cls-1" d="M356.23,13.32H344.05V44.81H336V13.32H323.77v-7h32.46Z"/><path class="cls-1" d="M359.1,25.56c0-11,8.61-20,20.45-20s20.45,9,20.45,20-8.62,20-20.45,20S359.1,36.59,359.1,25.56Zm32.51,0a12.07,12.07,0,1,0-24.13,0c0,7.07,5.12,12.24,12.07,12.24A11.82,11.82,0,0,0,391.61,25.56Z"/><path class="cls-1" d="M127.26,73.9c0,3.72-2.8,6.48-7.55,6.48H109.8V58.1h8.55c4.65,0,7.54,2.36,7.54,5.92a5.17,5.17,0,0,1-2.32,4.39A5.76,5.76,0,0,1,127.26,73.9ZM114.32,62.16v5h3.83c2.06,0,3.09-1.06,3.09-2.46s-1-2.49-3.09-2.49Zm5.19,14.13c2,0,3.09-1.06,3.09-2.62s-1.13-2.6-3.09-2.6h-5.19v5.22Z"/><path class="cls-1" d="M144.26,76.16H154.5v4.22H139.57V58.1h4.69Z"/><path class="cls-1" d="M164.65,69.24a11.84,11.84,0,1,1,11.84,11.58A11.52,11.52,0,0,1,164.65,69.24Zm18.82,0a7,7,0,1,0-7,7.09A6.84,6.84,0,0,0,183.47,69.24Z"/><path class="cls-1" d="M199.74,69.24c0-6.38,4.79-11.57,12.3-11.57A19.17,19.17,0,0,1,219.46,59v4.56a17.58,17.58,0,0,0-7-1.5c-4.89,0-7.85,3-7.85,7.15s3,7.15,7.85,7.15a17.56,17.56,0,0,0,7-1.49v4.55A19,19,0,0,1,212,80.82C204.53,80.82,199.74,75.63,199.74,69.24Z"/><path class="cls-1" d="M247.3,80.38l-7.72-9.67h-3.22v9.67h-4.69V58.1h4.69v8.48h3.39l7.08-8.48h5.76l-9,10.58,9.41,11.7Z"/><path class="cls-1" d="M260.84,69.24c0-6.38,4.79-11.57,12.3-11.57A19.17,19.17,0,0,1,280.56,59v4.56a17.58,17.58,0,0,0-7-1.5c-4.89,0-7.85,3-7.85,7.15s3,7.15,7.85,7.15a17.56,17.56,0,0,0,7-1.49v4.55a19,19,0,0,1-7.42,1.37C265.63,80.82,260.84,75.63,260.84,69.24Z"/><path class="cls-1" d="M309.06,58.1h4.69V80.38h-4.69V71.21h-11.6v9.17h-4.69V58.1h4.69v8.78h11.6Z"/><path class="cls-1" d="M344.52,80.38l-1.93-4.25H332L330,80.38h-4.95L335.34,58.1h4l10.28,22.28Zm-10.81-8.21h7.12l-3.56-7.85Z"/><path class="cls-1" d="M360.89,80.38V58.1h4.69V80.38Z"/><path class="cls-1" d="M395.38,58.1H400V80.38h-4.12L383.31,65.32V80.38h-4.63V58.1h4.13l12.57,15Z"/><polygon class="cls-2" points="43.19 43.19 43.19 0 0 43.19 0 86.39 43.19 43.19"/><polygon class="cls-2" points="86.39 43.19 86.39 0 43.19 43.19 43.19 86.39 86.39 43.19"/></g></g></svg>